<svg xmlns="http://www.w3.org/2000/svg" width="1024" height="1024" viewBox="0 0 24 24" fill="none">
  <defs>
    <linearGradient id="eduhub-gradient" x1="3" y1="3" x2="21" y2="21" gradientUnits="userSpaceOnUse">
      <stop offset="0" stop-color="#1d4ed8" />
      <stop offset="1" stop-color="#16a34a" />
    </linearGradient>
  </defs>
  <rect x="1.5" y="1.5" width="21" height="21" rx="4" fill="url(#eduhub-gradient)" />
  <path d="M21.42 10.922a1 1 0 0 0-.019-1.838L12.83 5.18a2 2 0 0 0-1.66 0L2.6 9.08a1 1 0 0 0 0 1.832l8.57 3.908a2 2 0 0 0 1.66 0z" stroke="#ffffff" stroke-width="2" stroke-linecap="round" stroke-linejoin="round" />
  <path d="M22 10v6" stroke="#ffffff" stroke-width="2" stroke-linecap="round" stroke-linejoin="round" />
  <path d="M6 12.5V16a6 3 0 0 0 12 0v-3.5" stroke="#ffffff" stroke-width="2" stroke-linecap="round" stroke-linejoin="round" />
</svg>
